<?xml version="1.0" ?><svg id="Layer_1" style="enable-background:new 0 0 128 128;" version="1.1" viewBox="0 0 128 128" xml:space="preserve" xmlns="http://www.w3.org/2000/svg" xmlns:xlink="http://www.w3.org/1999/xlink"><style type="text/css">
	.st0{fill:#0D6291;}
	.st1{fill:#FFFFFF;}
</style><g><g><path class="st0" d="M125.4,46C117.6,19.4,93.1,0,64,0S10.4,19.4,2.6,46H125.4z"/></g><g><path class="st0" d="M2.6,82c7.8,26.6,32.3,46,61.4,46s53.6-19.4,61.4-46H2.6z"/></g></g><g><polygon class="st1" points="64,8.1 65.9,14.3 72.4,14.2 67.1,18 69.2,24.1 64,20.2 58.8,24.1 60.9,18 55.6,14.2 62.1,14.3  "/></g><g><polygon class="st1" points="64,104.1 65.9,110.3 72.4,110.2 67.1,114 69.2,120.1 64,116.2 58.8,120.1 60.9,114 55.6,110.2    62.1,110.3  "/></g><g><polygon class="st1" points="96,19.1 97.9,25.3 104.4,25.2 99.1,29 101.2,35.1 96,31.2 90.8,35.1 92.9,29 87.6,25.2 94.1,25.3  "/></g><g><polygon class="st1" points="31,19.1 32.9,25.3 39.4,25.2 34.1,29 36.2,35.1 31,31.2 25.8,35.1 27.9,29 22.6,25.2 29.1,25.3  "/></g><g><polygon class="st1" points="31,90.1 32.9,96.3 39.4,96.2 34.1,100 36.2,106.1 31,102.2 25.8,106.1 27.9,100 22.6,96.2 29.1,96.3     "/></g><g><polygon class="st1" points="96,90.1 97.9,96.3 104.4,96.2 99.1,100 101.2,106.1 96,102.2 90.8,106.1 92.9,100 87.6,96.2    94.1,96.3  "/></g><g><path class="st0" d="M29.8,76l-7.5-21.4h3.1l6.1,18.6h0.1l6.2-18.6h3L33.1,76H29.8z"/><path class="st0" d="M44.4,61.1c0.4-1.4,1.1-2.5,1.9-3.6c0.9-1,1.9-1.9,3.2-2.5c1.3-0.6,2.8-0.9,4.5-0.9c1.7,0,3.2,0.3,4.5,0.9   c1.3,0.6,2.3,1.5,3.2,2.5c0.9,1,1.5,2.2,1.9,3.6c0.4,1.3,0.6,2.8,0.6,4.2s-0.2,2.9-0.6,4.2c-0.4,1.4-1.1,2.5-1.9,3.6   c-0.9,1-1.9,1.9-3.2,2.5c-1.3,0.6-2.8,0.9-4.5,0.9c-1.7,0-3.2-0.3-4.5-0.9c-1.3-0.6-2.4-1.4-3.2-2.5c-0.9-1-1.5-2.2-1.9-3.6   c-0.4-1.3-0.6-2.8-0.6-4.2S44,62.4,44.4,61.1z M47,68.5c0.3,1,0.7,2,1.3,2.8s1.4,1.5,2.3,2c0.9,0.5,2.1,0.8,3.4,0.8   c1.3,0,2.4-0.3,3.4-0.8c0.9-0.5,1.7-1.2,2.3-2c0.6-0.8,1-1.8,1.3-2.8c0.3-1.1,0.4-2.1,0.4-3.2s-0.1-2.1-0.4-3.2   c-0.3-1-0.7-2-1.3-2.8c-0.6-0.8-1.4-1.5-2.3-2c-0.9-0.5-2.1-0.8-3.4-0.8c-1.3,0-2.4,0.3-3.4,0.8c-0.9,0.5-1.7,1.2-2.3,2   s-1,1.8-1.3,2.8c-0.3,1-0.4,2.1-0.4,3.2S46.7,67.5,47,68.5z"/><path class="st0" d="M67.5,57v-2.4h17.1V57h-7.1v19h-2.8V57H67.5z"/><path class="st0" d="M103.7,54.6V57H91.8v6.8h11.1v2.4H91.8v7.4h12V76H88.9V54.6H103.7z"/></g></svg>